<mxfile host="app.diagrams.net" modified="2024-06-17T10:08:24.513Z" agent="Mozilla/5.0 (Windows NT 10.0; Win64; x64) AppleWebKit/537.36 (KHTML, like Gecko) Chrome/125.0.0.0 Safari/537.36" etag="w9YKnFGeUnY3s7aOWEev" version="24.5.4" type="device">
  <diagram name="Page-1" id="gC5uqNwqaRCFUu7vOt0g">
    <mxGraphModel dx="1087" dy="530" grid="1" gridSize="10" guides="1" tooltips="1" connect="1" arrows="1" fold="1" page="1" pageScale="1" pageWidth="850" pageHeight="1100" math="0" shadow="0">
      <root>
        <mxCell id="0" />
        <mxCell id="1" parent="0" />
        <mxCell id="_C5gVdaisaOA8g9b09kY-8" value="" style="endArrow=none;dashed=1;html=1;rounded=0;entryX=0;entryY=0.25;entryDx=0;entryDy=0;exitX=0.783;exitY=-0.022;exitDx=0;exitDy=0;exitPerimeter=0;endFill=0;startArrow=classic;startFill=1;" parent="1" source="zSF9qhG4qP3Q0nkdV0IF-74" target="_C5gVdaisaOA8g9b09kY-13" edge="1">
          <mxGeometry width="50" height="50" relative="1" as="geometry">
            <mxPoint x="400" y="160" as="sourcePoint" />
            <mxPoint x="715.5899999999999" y="205.20000000000005" as="targetPoint" />
            <Array as="points">
              <mxPoint x="230" y="210" />
            </Array>
          </mxGeometry>
        </mxCell>
        <mxCell id="zSF9qhG4qP3Q0nkdV0IF-67" value="&lt;b&gt;GroundSystem&lt;/b&gt;" style="shape=umlFrame;whiteSpace=wrap;html=1;pointerEvents=0;width=170;height=40;" parent="1" vertex="1">
          <mxGeometry x="175" y="80" width="400" height="110" as="geometry" />
        </mxCell>
        <mxCell id="zSF9qhG4qP3Q0nkdV0IF-68" value="stations" style="rounded=1;whiteSpace=wrap;html=1;" parent="1" vertex="1">
          <mxGeometry x="185" y="150" width="60" height="30" as="geometry" />
        </mxCell>
        <mxCell id="zSF9qhG4qP3Q0nkdV0IF-69" value="origin" style="rounded=1;whiteSpace=wrap;html=1;" parent="1" vertex="1">
          <mxGeometry x="255" y="150" width="50" height="30" as="geometry" />
        </mxCell>
        <mxCell id="zSF9qhG4qP3Q0nkdV0IF-70" value="logger" style="rounded=1;whiteSpace=wrap;html=1;" parent="1" vertex="1">
          <mxGeometry x="315" y="150" width="50" height="30" as="geometry" />
        </mxCell>
        <mxCell id="zSF9qhG4qP3Q0nkdV0IF-71" value="connectionChecker" style="rounded=1;whiteSpace=wrap;html=1;" parent="1" vertex="1">
          <mxGeometry x="445" y="150" width="120" height="30" as="geometry" />
        </mxCell>
        <mxCell id="zSF9qhG4qP3Q0nkdV0IF-72" value="calibrator" style="rounded=1;whiteSpace=wrap;html=1;" parent="1" vertex="1">
          <mxGeometry x="373" y="150" width="63" height="30" as="geometry" />
        </mxCell>
        <mxCell id="zSF9qhG4qP3Q0nkdV0IF-73" value="" style="endArrow=none;html=1;rounded=0;entryX=0.5;entryY=1;entryDx=0;entryDy=0;exitX=0.495;exitY=-0.004;exitDx=0;exitDy=0;exitPerimeter=0;" parent="1" source="zSF9qhG4qP3Q0nkdV0IF-74" target="zSF9qhG4qP3Q0nkdV0IF-68" edge="1">
          <mxGeometry width="50" height="50" relative="1" as="geometry">
            <mxPoint x="150" y="280" as="sourcePoint" />
            <mxPoint x="430" y="360" as="targetPoint" />
          </mxGeometry>
        </mxCell>
        <mxCell id="zSF9qhG4qP3Q0nkdV0IF-74" value="&lt;b&gt;Stations&lt;/b&gt;" style="shape=umlFrame;whiteSpace=wrap;html=1;pointerEvents=0;width=95;height=30;" parent="1" vertex="1">
          <mxGeometry x="50" y="240" width="231" height="90" as="geometry" />
        </mxCell>
        <mxCell id="zSF9qhG4qP3Q0nkdV0IF-87" value="" style="group" parent="1" vertex="1" connectable="0">
          <mxGeometry x="55" y="286" width="140" height="40" as="geometry" />
        </mxCell>
        <mxCell id="zSF9qhG4qP3Q0nkdV0IF-75" value="" style="rounded=1;whiteSpace=wrap;html=1;" parent="zSF9qhG4qP3Q0nkdV0IF-87" vertex="1">
          <mxGeometry width="140" height="39.21568627450981" as="geometry" />
        </mxCell>
        <mxCell id="zSF9qhG4qP3Q0nkdV0IF-80" value="" style="endArrow=none;html=1;rounded=0;exitX=0;exitY=0.5;exitDx=0;exitDy=0;entryX=1;entryY=0.5;entryDx=0;entryDy=0;" parent="zSF9qhG4qP3Q0nkdV0IF-87" source="zSF9qhG4qP3Q0nkdV0IF-75" target="zSF9qhG4qP3Q0nkdV0IF-75" edge="1">
          <mxGeometry width="50" height="50" relative="1" as="geometry">
            <mxPoint x="335.1515151515152" y="-117.6470588235294" as="sourcePoint" />
            <mxPoint x="377.57575757575756" y="-156.86274509803923" as="targetPoint" />
          </mxGeometry>
        </mxCell>
        <mxCell id="zSF9qhG4qP3Q0nkdV0IF-81" value="stations_array" style="text;html=1;align=center;verticalAlign=middle;whiteSpace=wrap;rounded=0;" parent="zSF9qhG4qP3Q0nkdV0IF-87" vertex="1">
          <mxGeometry x="44.54545454545455" y="-2" width="50.909090909090914" height="23.52941176470588" as="geometry" />
        </mxCell>
        <mxCell id="zSF9qhG4qP3Q0nkdV0IF-83" value="" style="endArrow=none;html=1;rounded=0;entryX=0.25;entryY=1;entryDx=0;entryDy=0;startSize=6;exitX=0.25;exitY=1;exitDx=0;exitDy=0;" parent="zSF9qhG4qP3Q0nkdV0IF-87" edge="1">
          <mxGeometry width="50" height="50" relative="1" as="geometry">
            <mxPoint x="36.484848484848484" y="20.392156862745097" as="sourcePoint" />
            <mxPoint x="36.696969696969695" y="39.21568627450981" as="targetPoint" />
          </mxGeometry>
        </mxCell>
        <mxCell id="zSF9qhG4qP3Q0nkdV0IF-84" value="" style="endArrow=none;html=1;rounded=0;entryX=0.25;entryY=1;entryDx=0;entryDy=0;startSize=6;exitX=0.25;exitY=1;exitDx=0;exitDy=0;" parent="zSF9qhG4qP3Q0nkdV0IF-87" edge="1">
          <mxGeometry width="50" height="50" relative="1" as="geometry">
            <mxPoint x="71.27272727272728" y="20.392156862745097" as="sourcePoint" />
            <mxPoint x="71.48484848484848" y="39.21568627450981" as="targetPoint" />
          </mxGeometry>
        </mxCell>
        <mxCell id="zSF9qhG4qP3Q0nkdV0IF-86" value="......." style="text;html=1;align=center;verticalAlign=middle;whiteSpace=wrap;rounded=0;" parent="zSF9qhG4qP3Q0nkdV0IF-87" vertex="1">
          <mxGeometry x="69.57575757575758" y="16.470588235294116" width="50.909090909090914" height="23.52941176470588" as="geometry" />
        </mxCell>
        <mxCell id="zSF9qhG4qP3Q0nkdV0IF-89" value="LOS_matrix" style="rounded=1;whiteSpace=wrap;html=1;" parent="1" vertex="1">
          <mxGeometry x="201" y="295" width="75" height="29" as="geometry" />
        </mxCell>
        <mxCell id="zSF9qhG4qP3Q0nkdV0IF-90" value="&lt;b&gt;Origin&lt;/b&gt;" style="shape=umlFrame;whiteSpace=wrap;html=1;pointerEvents=0;width=76;height=30;" parent="1" vertex="1">
          <mxGeometry x="284.5" y="240" width="95.5" height="90" as="geometry" />
        </mxCell>
        <mxCell id="zSF9qhG4qP3Q0nkdV0IF-100" value="" style="endArrow=none;html=1;rounded=0;entryX=0.5;entryY=1;entryDx=0;entryDy=0;exitX=0.496;exitY=0.002;exitDx=0;exitDy=0;exitPerimeter=0;" parent="1" source="zSF9qhG4qP3Q0nkdV0IF-90" target="zSF9qhG4qP3Q0nkdV0IF-69" edge="1">
          <mxGeometry width="50" height="50" relative="1" as="geometry">
            <mxPoint x="350" y="230" as="sourcePoint" />
            <mxPoint x="430" y="270" as="targetPoint" />
          </mxGeometry>
        </mxCell>
        <mxCell id="zSF9qhG4qP3Q0nkdV0IF-101" value="&lt;b&gt;Logger&lt;/b&gt;" style="shape=umlFrame;whiteSpace=wrap;html=1;pointerEvents=0;width=57;height=30;" parent="1" vertex="1">
          <mxGeometry x="383" y="240" width="67" height="90" as="geometry" />
        </mxCell>
        <mxCell id="zSF9qhG4qP3Q0nkdV0IF-103" value="" style="endArrow=none;html=1;rounded=0;entryX=0.5;entryY=1;entryDx=0;entryDy=0;exitX=0.502;exitY=0.002;exitDx=0;exitDy=0;exitPerimeter=0;" parent="1" source="zSF9qhG4qP3Q0nkdV0IF-101" target="zSF9qhG4qP3Q0nkdV0IF-70" edge="1">
          <mxGeometry width="50" height="50" relative="1" as="geometry">
            <mxPoint x="380" y="320" as="sourcePoint" />
            <mxPoint x="430" y="270" as="targetPoint" />
          </mxGeometry>
        </mxCell>
        <mxCell id="zSF9qhG4qP3Q0nkdV0IF-104" value="&lt;b&gt;Calibrator&lt;/b&gt;" style="shape=umlFrame;whiteSpace=wrap;html=1;pointerEvents=0;width=67;height=30;" parent="1" vertex="1">
          <mxGeometry x="453" y="240" width="77" height="90" as="geometry" />
        </mxCell>
        <mxCell id="zSF9qhG4qP3Q0nkdV0IF-105" value="" style="endArrow=none;html=1;rounded=0;entryX=0.5;entryY=1;entryDx=0;entryDy=0;exitX=0.501;exitY=0.002;exitDx=0;exitDy=0;exitPerimeter=0;" parent="1" source="zSF9qhG4qP3Q0nkdV0IF-104" target="zSF9qhG4qP3Q0nkdV0IF-72" edge="1">
          <mxGeometry width="50" height="50" relative="1" as="geometry">
            <mxPoint x="367" y="250" as="sourcePoint" />
            <mxPoint x="350" y="190" as="targetPoint" />
          </mxGeometry>
        </mxCell>
        <mxCell id="zSF9qhG4qP3Q0nkdV0IF-106" value="&lt;b&gt;ConnectionChecker&lt;/b&gt;" style="shape=umlFrame;whiteSpace=wrap;html=1;pointerEvents=0;width=127;height=30;" parent="1" vertex="1">
          <mxGeometry x="533" y="240" width="137" height="90" as="geometry" />
        </mxCell>
        <mxCell id="zSF9qhG4qP3Q0nkdV0IF-107" value="" style="endArrow=none;html=1;rounded=0;entryX=0.5;entryY=1;entryDx=0;entryDy=0;exitX=0.504;exitY=0.002;exitDx=0;exitDy=0;exitPerimeter=0;" parent="1" source="zSF9qhG4qP3Q0nkdV0IF-106" target="zSF9qhG4qP3Q0nkdV0IF-71" edge="1">
          <mxGeometry width="50" height="50" relative="1" as="geometry">
            <mxPoint x="650" y="230" as="sourcePoint" />
            <mxPoint x="415" y="190" as="targetPoint" />
          </mxGeometry>
        </mxCell>
        <mxCell id="zSF9qhG4qP3Q0nkdV0IF-111" value="&lt;b&gt;Jetson&lt;/b&gt;" style="shape=umlFrame;whiteSpace=wrap;html=1;pointerEvents=0;width=76;height=30;" parent="1" vertex="1">
          <mxGeometry x="89.5" y="380" width="95.5" height="90" as="geometry" />
        </mxCell>
        <mxCell id="zSF9qhG4qP3Q0nkdV0IF-113" value="" style="endArrow=none;html=1;rounded=0;exitX=0.25;exitY=-0.005;exitDx=0;exitDy=0;exitPerimeter=0;entryX=0.148;entryY=1.002;entryDx=0;entryDy=0;endSize=6;movable=1;resizable=1;rotatable=1;deletable=1;editable=1;locked=0;connectable=1;entryPerimeter=0;" parent="1" source="zSF9qhG4qP3Q0nkdV0IF-111" target="zSF9qhG4qP3Q0nkdV0IF-75" edge="1">
          <mxGeometry width="50" height="50" relative="1" as="geometry">
            <mxPoint x="380" y="410" as="sourcePoint" />
            <mxPoint x="430" y="360" as="targetPoint" />
          </mxGeometry>
        </mxCell>
        <mxCell id="zSF9qhG4qP3Q0nkdV0IF-114" value="" style="endArrow=none;html=1;rounded=0;exitX=0.495;exitY=0.001;exitDx=0;exitDy=0;exitPerimeter=0;endSize=6;movable=1;resizable=1;rotatable=1;deletable=1;editable=1;locked=0;connectable=1;entryX=0.4;entryY=1.002;entryDx=0;entryDy=0;entryPerimeter=0;" parent="1" source="zSF9qhG4qP3Q0nkdV0IF-111" target="zSF9qhG4qP3Q0nkdV0IF-75" edge="1">
          <mxGeometry width="50" height="50" relative="1" as="geometry">
            <mxPoint x="133" y="390" as="sourcePoint" />
            <mxPoint x="110" y="330" as="targetPoint" />
          </mxGeometry>
        </mxCell>
        <mxCell id="zSF9qhG4qP3Q0nkdV0IF-115" value="" style="endArrow=none;html=1;rounded=0;exitX=0.658;exitY=-0.001;exitDx=0;exitDy=0;exitPerimeter=0;endSize=6;movable=1;resizable=1;rotatable=1;deletable=1;editable=1;locked=0;connectable=1;entryX=0.523;entryY=0.978;entryDx=0;entryDy=0;entryPerimeter=0;" parent="1" source="zSF9qhG4qP3Q0nkdV0IF-111" edge="1">
          <mxGeometry width="50" height="50" relative="1" as="geometry">
            <mxPoint x="159.485" y="380.09000000000003" as="sourcePoint" />
            <mxPoint x="147.20121212121205" y="325.4823529411765" as="targetPoint" />
          </mxGeometry>
        </mxCell>
        <mxCell id="zSF9qhG4qP3Q0nkdV0IF-116" value="" style="endArrow=none;html=1;rounded=0;exitX=0.88;exitY=0.965;exitDx=0;exitDy=0;exitPerimeter=0;endSize=6;movable=1;resizable=1;rotatable=1;deletable=1;editable=1;locked=0;connectable=1;entryX=0.749;entryY=0;entryDx=0;entryDy=0;entryPerimeter=0;" parent="1" source="zSF9qhG4qP3Q0nkdV0IF-86" target="zSF9qhG4qP3Q0nkdV0IF-111" edge="1">
          <mxGeometry width="50" height="50" relative="1" as="geometry">
            <mxPoint x="167" y="400" as="sourcePoint" />
            <mxPoint x="131" y="345" as="targetPoint" />
          </mxGeometry>
        </mxCell>
        <mxCell id="zSF9qhG4qP3Q0nkdV0IF-117" value="&lt;b&gt;LOS_Matrix&lt;/b&gt;" style="shape=umlFrame;whiteSpace=wrap;html=1;pointerEvents=0;width=75;height=30;" parent="1" vertex="1">
          <mxGeometry x="195" y="380" width="85" height="60" as="geometry" />
        </mxCell>
        <mxCell id="zSF9qhG4qP3Q0nkdV0IF-118" value="" style="endArrow=none;html=1;rounded=0;exitX=0.5;exitY=-0.006;exitDx=0;exitDy=0;exitPerimeter=0;entryX=0.5;entryY=1;entryDx=0;entryDy=0;" parent="1" source="zSF9qhG4qP3Q0nkdV0IF-117" target="zSF9qhG4qP3Q0nkdV0IF-89" edge="1">
          <mxGeometry width="50" height="50" relative="1" as="geometry">
            <mxPoint x="310" y="360" as="sourcePoint" />
            <mxPoint x="360" y="310" as="targetPoint" />
          </mxGeometry>
        </mxCell>
        <mxCell id="zSF9qhG4qP3Q0nkdV0IF-119" value="&lt;b&gt;DCM&lt;/b&gt;" style="shape=umlFrame;whiteSpace=wrap;html=1;pointerEvents=0;width=75;height=30;" parent="1" vertex="1">
          <mxGeometry x="255" y="520" width="85" height="50" as="geometry" />
        </mxCell>
        <mxCell id="zSF9qhG4qP3Q0nkdV0IF-120" value="orientation" style="rounded=1;whiteSpace=wrap;html=1;" parent="1" vertex="1">
          <mxGeometry x="295" y="295" width="75" height="29" as="geometry" />
        </mxCell>
        <mxCell id="zSF9qhG4qP3Q0nkdV0IF-121" value="orientation" style="rounded=1;whiteSpace=wrap;html=1;" parent="1" vertex="1">
          <mxGeometry x="100" y="434" width="75" height="29" as="geometry" />
        </mxCell>
        <mxCell id="zSF9qhG4qP3Q0nkdV0IF-122" value="" style="endArrow=none;html=1;rounded=0;entryX=0.5;entryY=1;entryDx=0;entryDy=0;exitX=0.662;exitY=-0.003;exitDx=0;exitDy=0;exitPerimeter=0;" parent="1" source="zSF9qhG4qP3Q0nkdV0IF-119" target="zSF9qhG4qP3Q0nkdV0IF-120" edge="1">
          <mxGeometry width="50" height="50" relative="1" as="geometry">
            <mxPoint x="280" y="440" as="sourcePoint" />
            <mxPoint x="330" y="390" as="targetPoint" />
          </mxGeometry>
        </mxCell>
        <mxCell id="zSF9qhG4qP3Q0nkdV0IF-123" value="" style="endArrow=none;html=1;rounded=0;exitX=0.249;exitY=0;exitDx=0;exitDy=0;exitPerimeter=0;entryX=0.5;entryY=1;entryDx=0;entryDy=0;" parent="1" source="zSF9qhG4qP3Q0nkdV0IF-119" target="zSF9qhG4qP3Q0nkdV0IF-121" edge="1">
          <mxGeometry width="50" height="50" relative="1" as="geometry">
            <mxPoint x="321" y="530" as="sourcePoint" />
            <mxPoint x="140" y="490" as="targetPoint" />
          </mxGeometry>
        </mxCell>
        <mxCell id="_C5gVdaisaOA8g9b09kY-1" value="&lt;b&gt;GuiSender&lt;/b&gt;" style="shape=umlFrame;whiteSpace=wrap;html=1;pointerEvents=0;width=75;height=30;" parent="1" vertex="1">
          <mxGeometry x="670" y="30" width="90" height="50" as="geometry" />
        </mxCell>
        <mxCell id="_C5gVdaisaOA8g9b09kY-3" value="&lt;span style=&quot;text-align: left;&quot;&gt;&lt;b&gt;LeastSquaresSolver&lt;/b&gt;&lt;/span&gt;" style="shape=umlFrame;whiteSpace=wrap;html=1;pointerEvents=0;width=140;height=30;" parent="1" vertex="1">
          <mxGeometry x="650" y="90" width="150" height="50" as="geometry" />
        </mxCell>
        <mxCell id="_C5gVdaisaOA8g9b09kY-5" value="" style="endArrow=classic;dashed=1;html=1;strokeWidth=1;rounded=0;entryX=1.001;entryY=0.276;entryDx=0;entryDy=0;entryPerimeter=0;exitX=-0.018;exitY=0.464;exitDx=0;exitDy=0;exitPerimeter=0;startArrow=none;startFill=0;endFill=1;" parent="1" source="_C5gVdaisaOA8g9b09kY-1" target="zSF9qhG4qP3Q0nkdV0IF-67" edge="1">
          <mxGeometry width="50" height="50" relative="1" as="geometry">
            <mxPoint x="400" y="160" as="sourcePoint" />
            <mxPoint x="450" y="110" as="targetPoint" />
          </mxGeometry>
        </mxCell>
        <mxCell id="_C5gVdaisaOA8g9b09kY-6" value="" style="endArrow=classic;dashed=1;html=1;strokeWidth=1;rounded=0;entryX=1.001;entryY=0.404;entryDx=0;entryDy=0;entryPerimeter=0;exitX=-0.016;exitY=0.752;exitDx=0;exitDy=0;exitPerimeter=0;endFill=1;" parent="1" source="_C5gVdaisaOA8g9b09kY-3" target="zSF9qhG4qP3Q0nkdV0IF-67" edge="1">
          <mxGeometry width="50" height="50" relative="1" as="geometry">
            <mxPoint x="678" y="63" as="sourcePoint" />
            <mxPoint x="587" y="121" as="targetPoint" />
          </mxGeometry>
        </mxCell>
        <mxCell id="_C5gVdaisaOA8g9b09kY-7" value="" style="endArrow=none;dashed=1;html=1;rounded=0;entryX=0;entryY=0;entryDx=0;entryDy=0;exitX=1.001;exitY=0.549;exitDx=0;exitDy=0;exitPerimeter=0;endFill=0;startArrow=classic;startFill=1;" parent="1" source="zSF9qhG4qP3Q0nkdV0IF-67" target="_C5gVdaisaOA8g9b09kY-13" edge="1">
          <mxGeometry width="50" height="50" relative="1" as="geometry">
            <mxPoint x="400" y="160" as="sourcePoint" />
            <mxPoint x="718.02" y="192.39999999999998" as="targetPoint" />
          </mxGeometry>
        </mxCell>
        <mxCell id="_C5gVdaisaOA8g9b09kY-9" value="" style="endArrow=none;dashed=1;html=1;rounded=0;entryX=0.22;entryY=1;entryDx=0;entryDy=0;entryPerimeter=0;exitX=0.769;exitY=-0.007;exitDx=0;exitDy=0;exitPerimeter=0;endFill=0;startArrow=classic;startFill=1;" parent="1" source="zSF9qhG4qP3Q0nkdV0IF-117" target="_C5gVdaisaOA8g9b09kY-13" edge="1">
          <mxGeometry width="50" height="50" relative="1" as="geometry">
            <mxPoint x="400" y="360" as="sourcePoint" />
            <mxPoint x="740.4299999999998" y="242.0000000000001" as="targetPoint" />
            <Array as="points">
              <mxPoint x="270" y="360" />
              <mxPoint x="680" y="360" />
            </Array>
          </mxGeometry>
        </mxCell>
        <mxCell id="_C5gVdaisaOA8g9b09kY-10" value="" style="endArrow=none;dashed=1;html=1;rounded=0;exitX=0.672;exitY=-0.002;exitDx=0;exitDy=0;exitPerimeter=0;endFill=0;startArrow=classic;startFill=1;" parent="1" edge="1">
          <mxGeometry width="50" height="50" relative="1" as="geometry">
            <mxPoint x="430.0240000000001" y="237.82000000000005" as="sourcePoint" />
            <mxPoint x="430" y="210" as="targetPoint" />
          </mxGeometry>
        </mxCell>
        <mxCell id="_C5gVdaisaOA8g9b09kY-12" value="" style="endArrow=none;dashed=1;html=1;rounded=0;entryX=0.5;entryY=0;entryDx=0;entryDy=0;exitX=0.529;exitY=1.024;exitDx=0;exitDy=0;exitPerimeter=0;targetPerimeterSpacing=0;strokeWidth=1;startArrow=classic;startFill=1;curved=0;" parent="1" source="_C5gVdaisaOA8g9b09kY-3" target="_C5gVdaisaOA8g9b09kY-13" edge="1">
          <mxGeometry width="50" height="50" relative="1" as="geometry">
            <mxPoint x="585" y="150" as="sourcePoint" />
            <mxPoint x="760.5" y="188.45000000000005" as="targetPoint" />
          </mxGeometry>
        </mxCell>
        <mxCell id="_C5gVdaisaOA8g9b09kY-13" value="&lt;b&gt;Prints.py&lt;/b&gt;" style="rounded=0;whiteSpace=wrap;html=1;" parent="1" vertex="1">
          <mxGeometry x="716" y="194" width="81" height="46" as="geometry" />
        </mxCell>
        <mxCell id="_C5gVdaisaOA8g9b09kY-15" value="" style="rounded=1;whiteSpace=wrap;html=1;fillColor=#f5f5f5;fontColor=#333333;strokeColor=#666666;" parent="1" vertex="1">
          <mxGeometry x="442" y="388" width="315" height="242" as="geometry" />
        </mxCell>
        <mxCell id="_C5gVdaisaOA8g9b09kY-16" value="&lt;b&gt;Prints.py&lt;/b&gt;" style="rounded=0;whiteSpace=wrap;html=1;" parent="1" vertex="1">
          <mxGeometry x="462.5" y="404" width="85" height="36" as="geometry" />
        </mxCell>
        <mxCell id="_C5gVdaisaOA8g9b09kY-18" value="&lt;b&gt;DCM&lt;/b&gt;" style="shape=umlFrame;whiteSpace=wrap;html=1;pointerEvents=0;width=75;height=30;" parent="1" vertex="1">
          <mxGeometry x="462.5" y="451" width="85" height="50" as="geometry" />
        </mxCell>
        <mxCell id="_C5gVdaisaOA8g9b09kY-19" value="orientation" style="rounded=1;whiteSpace=wrap;html=1;" parent="1" vertex="1">
          <mxGeometry x="467.5" y="512" width="75" height="29" as="geometry" />
        </mxCell>
        <mxCell id="_C5gVdaisaOA8g9b09kY-20" value="Python file with global functions" style="text;html=1;align=left;verticalAlign=middle;whiteSpace=wrap;rounded=0;" parent="1" vertex="1">
          <mxGeometry x="571.5" y="410" width="171.5" height="27" as="geometry" />
        </mxCell>
        <mxCell id="_C5gVdaisaOA8g9b09kY-21" value="Class (general)" style="text;html=1;align=left;verticalAlign=middle;whiteSpace=wrap;rounded=0;" parent="1" vertex="1">
          <mxGeometry x="571.5" y="457" width="171.5" height="27" as="geometry" />
        </mxCell>
        <mxCell id="_C5gVdaisaOA8g9b09kY-23" value="Class instance" style="text;html=1;align=left;verticalAlign=middle;whiteSpace=wrap;rounded=0;" parent="1" vertex="1">
          <mxGeometry x="571.5" y="512" width="171.5" height="27" as="geometry" />
        </mxCell>
        <mxCell id="_C5gVdaisaOA8g9b09kY-24" value="" style="endArrow=none;html=1;rounded=0;" parent="1" edge="1">
          <mxGeometry width="50" height="50" relative="1" as="geometry">
            <mxPoint x="470" y="570" as="sourcePoint" />
            <mxPoint x="540" y="570" as="targetPoint" />
          </mxGeometry>
        </mxCell>
        <mxCell id="_C5gVdaisaOA8g9b09kY-26" value="instance &amp;lt;---&amp;gt; Class" style="text;html=1;align=left;verticalAlign=middle;whiteSpace=wrap;rounded=0;" parent="1" vertex="1">
          <mxGeometry x="572" y="555" width="171.5" height="27" as="geometry" />
        </mxCell>
        <mxCell id="_C5gVdaisaOA8g9b09kY-27" value="" style="endArrow=none;html=1;rounded=0;dashed=1;" parent="1" edge="1">
          <mxGeometry width="50" height="50" relative="1" as="geometry">
            <mxPoint x="470.5" y="600" as="sourcePoint" />
            <mxPoint x="540.5" y="600" as="targetPoint" />
          </mxGeometry>
        </mxCell>
        <mxCell id="_C5gVdaisaOA8g9b09kY-28" value="user &amp;lt;---&amp;gt; Class (static functions)" style="text;html=1;align=left;verticalAlign=middle;whiteSpace=wrap;rounded=0;" parent="1" vertex="1">
          <mxGeometry x="571.5" y="581" width="178.5" height="37" as="geometry" />
        </mxCell>
      </root>
    </mxGraphModel>
  </diagram>
</mxfile>
